<svg width="36" height="36" viewBox="0 0 36 36" fill="none" xmlns="http://www.w3.org/2000/svg">
<g id="Vector">
<path fill-rule="evenodd" clip-rule="evenodd" d="M5.5 5.5C4.11929 5.5 3 6.61929 3 8V30.5C3 31.8807 4.11929 33 5.5 33H30.5C31.8807 33 33 31.8807 33 30.5V8C33 6.61929 31.8807 5.5 30.5 5.5H5.5ZM0.5 8C0.5 5.23858 2.73858 3 5.5 3H30.5C33.2614 3 35.5 5.23858 35.5 8V30.5C35.5 33.2614 33.2614 35.5 30.5 35.5H5.5C2.73858 35.5 0.5 33.2614 0.5 30.5V8Z" fill="#1E293B"/>
<path d="M21.125 18C22.1605 18 23 17.1605 23 16.125C23 15.0895 22.1605 14.25 21.125 14.25C20.0895 14.25 19.25 15.0895 19.25 16.125C19.25 17.1605 20.0895 18 21.125 18Z" fill="#1E293B"/>
<path d="M27.375 18C28.4105 18 29.25 17.1605 29.25 16.125C29.25 15.0895 28.4105 14.25 27.375 14.25C26.3395 14.25 25.5 15.0895 25.5 16.125C25.5 17.1605 26.3395 18 27.375 18Z" fill="#1E293B"/>
<path d="M21.125 24.25C22.1605 24.25 23 23.4105 23 22.375C23 21.3395 22.1605 20.5 21.125 20.5C20.0895 20.5 19.25 21.3395 19.25 22.375C19.25 23.4105 20.0895 24.25 21.125 24.25Z" fill="#1E293B"/>
<path d="M27.375 24.25C28.4105 24.25 29.25 23.4105 29.25 22.375C29.25 21.3395 28.4105 20.5 27.375 20.5C26.3395 20.5 25.5 21.3395 25.5 22.375C25.5 23.4105 26.3395 24.25 27.375 24.25Z" fill="#1E293B"/>
<path d="M8.625 24.25C9.66053 24.25 10.5 23.4105 10.5 22.375C10.5 21.3395 9.66053 20.5 8.625 20.5C7.58947 20.5 6.75 21.3395 6.75 22.375C6.75 23.4105 7.58947 24.25 8.625 24.25Z" fill="#1E293B"/>
<path d="M14.875 24.25C15.9105 24.25 16.75 23.4105 16.75 22.375C16.75 21.3395 15.9105 20.5 14.875 20.5C13.8395 20.5 13 21.3395 13 22.375C13 23.4105 13.8395 24.25 14.875 24.25Z" fill="#1E293B"/>
<path d="M8.625 30.5C9.66053 30.5 10.5 29.6605 10.5 28.625C10.5 27.5895 9.66053 26.75 8.625 26.75C7.58947 26.75 6.75 27.5895 6.75 28.625C6.75 29.6605 7.58947 30.5 8.625 30.5Z" fill="#1E293B"/>
<path d="M14.875 30.5C15.9105 30.5 16.75 29.6605 16.75 28.625C16.75 27.5895 15.9105 26.75 14.875 26.75C13.8395 26.75 13 27.5895 13 28.625C13 29.6605 13.8395 30.5 14.875 30.5Z" fill="#1E293B"/>
<path d="M21.125 30.5C22.1605 30.5 23 29.6605 23 28.625C23 27.5895 22.1605 26.75 21.125 26.75C20.0895 26.75 19.25 27.5895 19.25 28.625C19.25 29.6605 20.0895 30.5 21.125 30.5Z" fill="#1E293B"/>
<path fill-rule="evenodd" clip-rule="evenodd" d="M8 0.5C8.69036 0.5 9.25 1.05964 9.25 1.75V4.25C9.25 4.94036 8.69036 5.5 8 5.5C7.30964 5.5 6.75 4.94036 6.75 4.25V1.75C6.75 1.05964 7.30964 0.5 8 0.5Z" fill="#1E293B"/>
<path fill-rule="evenodd" clip-rule="evenodd" d="M28 0.5C28.6904 0.5 29.25 1.05964 29.25 1.75V4.25C29.25 4.94036 28.6904 5.5 28 5.5C27.3096 5.5 26.75 4.94036 26.75 4.25V1.75C26.75 1.05964 27.3096 0.5 28 0.5Z" fill="#1E293B"/>
<path fill-rule="evenodd" clip-rule="evenodd" d="M1.75 9.25H34.25V11.75H1.75V9.25Z" fill="#1E293B"/>
</g>
</svg>
