<svg width="206" height="59" viewBox="0 0 206 59" fill="none" xmlns="http://www.w3.org/2000/svg">
<path d="M41.7791 15.7833V1L64.6437 14.8218V22.6342L41.7791 15.7833Z" fill="#26252A"/>
<path d="M41.7791 29.7254V20.2304L64.6437 27.3216V34.5329L41.7791 29.7254Z" fill="#26252A"/>
<path d="M41.7791 44.5087V34.0522L64.6437 38.98V46.3115L41.7791 44.5087Z" fill="#26252A"/>
<path d="M41.7791 58.0901V48.5951L64.6437 50.9989V58.0901H41.7791Z" fill="#26252A"/>
<path d="M41.7791 15.7833V1L64.6437 14.8218V22.6342L41.7791 15.7833Z" stroke="#26252A"/>
<path d="M41.7791 29.7254V20.2304L64.6437 27.3216V34.5329L41.7791 29.7254Z" stroke="#26252A"/>
<path d="M41.7791 44.5087V34.0522L64.6437 38.98V46.3115L41.7791 44.5087Z" stroke="#26252A"/>
<path d="M41.7791 58.0901V48.5951L64.6437 50.9989V58.0901H41.7791Z" stroke="#26252A"/>
<path d="M1 14.942L41.7792 1V15.793L1 22.7543V14.942Z" fill="#B80006"/>
<path d="M1 34.4128V26.8408L41.7792 20.2353V29.7253L1 34.4128Z" fill="#B80006"/>
<path d="M1 46.1913V38.6194L41.7792 34.0576V44.5087L1 46.1913Z" fill="#B80006"/>
<path d="M1 58.3305V50.5182L41.7792 48.5951V58.1066L1 58.3305Z" fill="#B80006"/>
<path d="M1 14.942L41.7792 1V15.793L1 22.7543V14.942Z" stroke="#B80006"/>
<path d="M1 34.4128V26.8408L41.7792 20.2353V29.7253L1 34.4128Z" stroke="#B80006"/>
<path d="M1 46.1913V38.6194L41.7792 34.0576V44.5087L1 46.1913Z" stroke="#B80006"/>
<path d="M1 58.3305V50.5182L41.7792 48.5951V58.1066L1 58.3305Z" stroke="#B80006"/>
<path d="M74.0063 21.5757V42.0083H69.3333V21.5757H74.0063Z" fill="#26252A"/>
<path d="M91.318 23.3498C92.6377 24.451 93.2976 26.0517 93.2976 28.1521C93.2976 30.232 92.562 31.8328 91.0909 32.9543C90.3337 33.5253 89.4142 33.9331 88.3325 34.1778C87.2508 34.4225 85.8012 34.5449 83.9839 34.5449H83.1726V42.0083H78.4996V21.5757H84.7628C86.407 21.5757 87.7159 21.7083 88.6894 21.9734C89.6846 22.2384 90.5608 22.6973 91.318 23.3498ZM87.651 30.6602C88.3866 30.1912 88.7543 29.3246 88.7543 28.0603C88.7543 26.7756 88.3757 25.9192 87.6185 25.4909C86.883 25.0423 85.6823 24.818 84.0164 24.818H83.1726V31.3026H83.5296C85.6714 31.3026 87.0452 31.0885 87.651 30.6602Z" fill="#26252A"/>
<path d="M108.486 39.4083H105.079L100.6 27.3568L100.081 42.0083H95.7652L97.0308 21.5757H102.093L106.766 34.7284L111.472 21.5757H116.534L117.8 42.0083H113.451L112.932 27.3874L108.486 39.4083Z" fill="#26252A"/>
<path d="M126.415 38.4601H134.691V42.0083H121.71V21.5757H126.415V38.4601Z" fill="#26252A"/>
<path d="M150.681 34.2084C150.681 37.0429 150.01 39.1228 148.669 40.4483C147.328 41.7534 145.565 42.4059 143.379 42.4059C141.194 42.4059 139.453 41.7534 138.155 40.4483C136.878 39.1432 136.24 37.0735 136.24 34.239C136.24 31.4046 136.9 29.3348 138.22 28.0297C139.561 26.7042 141.313 26.0415 143.477 26.0415C148.28 26.0415 150.681 28.7638 150.681 34.2084ZM146.268 34.1778C146.268 32.3018 146.03 31.0273 145.554 30.3544C145.078 29.6814 144.375 29.345 143.444 29.345C142.536 29.345 141.833 29.6814 141.335 30.3544C140.859 31.0273 140.621 32.3222 140.621 34.239C140.621 37.5017 141.562 39.133 143.444 39.133C144.331 39.133 145.024 38.7762 145.521 38.0625C146.019 37.3284 146.268 36.0335 146.268 34.1778Z" fill="#26252A"/>
<path d="M161.252 42.7118H157.974C156.871 43.0585 156.319 43.6804 156.319 44.5776C156.319 45.7196 157.553 46.2905 160.019 46.2905C162.485 46.2905 163.718 45.5462 163.718 44.0576C163.718 43.609 163.534 43.2726 163.167 43.0483C162.821 42.8239 162.182 42.7118 161.252 42.7118ZM159.532 29.192C158.039 29.192 157.293 30.1097 157.293 31.9449C157.293 32.8422 157.466 33.4947 157.812 33.9025C158.18 34.3104 158.753 34.5143 159.532 34.5143C160.311 34.5143 160.873 34.3104 161.22 33.9025C161.566 33.4947 161.739 32.832 161.739 31.9143C161.739 30.9763 161.566 30.2932 161.22 29.865C160.873 29.4164 160.311 29.192 159.532 29.192ZM159.435 25.9497L162.29 26.1027C163.978 26.1027 165.763 25.9497 167.645 25.6439L168.034 27.9991C167.623 28.1011 166.498 28.2744 164.659 28.5191C165.417 29.5183 165.795 30.6501 165.795 31.9143C165.795 33.668 165.254 35.0955 164.173 36.1966C163.113 37.2978 161.577 37.8484 159.565 37.8484C158.851 37.8484 158.277 37.7974 157.845 37.6954C157.715 38.0625 157.65 38.3785 157.65 38.6436C157.65 39.3166 158.266 39.653 159.5 39.653H162.29C163.956 39.653 165.254 40.0099 166.185 40.7236C167.115 41.4169 167.58 42.3855 167.58 43.6294C167.58 45.4443 166.845 46.8717 165.373 47.9117C163.902 48.9517 161.998 49.4717 159.662 49.4717C157.325 49.4717 155.551 49.0944 154.34 48.3399C153.15 47.6058 152.555 46.5556 152.555 45.1894C152.555 44.3941 152.836 43.6396 153.399 42.9259C153.961 42.2122 154.751 41.6412 155.768 41.213C155.075 40.7848 154.729 40.173 154.729 39.3777C154.729 38.5621 155.054 37.7464 155.703 36.9307C154.924 36.4005 154.318 35.697 153.885 34.8202C153.453 33.9229 153.236 32.9543 153.236 31.9143C153.236 30.1403 153.756 28.7026 154.794 27.6015C155.854 26.5003 157.401 25.9497 159.435 25.9497Z" fill="#26252A"/>
<path d="M174.565 42.0083H170.022V26.3474L174.565 25.9803V42.0083ZM169.6 21.3004C169.6 20.6071 169.859 20.0157 170.379 19.5263C170.898 19.0369 171.525 18.7922 172.261 18.7922C172.996 18.7922 173.624 19.0369 174.143 19.5263C174.662 20.0157 174.922 20.6071 174.922 21.3004C174.922 21.9734 174.662 22.5647 174.143 23.0745C173.624 23.5843 172.996 23.8392 172.261 23.8392C171.525 23.8392 170.898 23.5945 170.379 23.1051C169.859 22.5953 169.6 21.9937 169.6 21.3004Z" fill="#26252A"/>
<path d="M184.303 29.345C182.832 29.345 182.097 29.8038 182.097 30.7214C182.097 31.2108 182.345 31.6289 182.843 31.9755C183.341 32.3222 183.936 32.6281 184.628 32.8932C185.342 33.1379 186.045 33.4233 186.737 33.7496C187.451 34.0555 188.057 34.5041 188.555 35.0955C189.052 35.6868 189.301 36.4107 189.301 37.2672C189.301 38.7966 188.749 40.0405 187.646 40.9989C186.543 41.9369 184.92 42.4059 182.778 42.4059C181.805 42.4059 180.777 42.304 179.695 42.1C178.635 41.8961 177.856 41.6616 177.359 41.3965L178.462 38.3378C180.15 38.8679 181.664 39.133 183.005 39.133C184.368 39.133 185.05 38.6334 185.05 37.6342C185.05 37.206 184.801 36.8186 184.303 36.4719C183.806 36.1252 183.2 35.8092 182.486 35.5237C181.794 35.2178 181.091 34.8915 180.377 34.5449C179.684 34.1982 179.09 33.7088 178.592 33.0767C178.094 32.4445 177.846 31.7104 177.846 30.8744C177.846 29.3042 178.397 28.1011 179.501 27.265C180.604 26.429 182.183 26.0109 184.239 26.0109C186.294 26.0109 187.906 26.327 189.074 26.9591L188.003 29.9873C186.51 29.5591 185.277 29.345 184.303 29.345Z" fill="#26252A"/>
<path d="M193.94 36.9613V29.2838L191.019 29.1003V26.5921L194.037 26.3474V22.7686L198.58 22.4016V26.3168H203.318L203.059 29.2838H198.548V37.3589C198.548 37.9503 198.645 38.3785 198.84 38.6436C199.035 38.8883 199.446 39.0107 200.073 39.0107C200.701 39.0107 201.404 38.9189 202.183 38.7354L202.864 41.7636C201.804 42.1918 200.722 42.4059 199.619 42.4059C198.537 42.4059 197.715 42.3447 197.153 42.2224C196.612 42.1 196.157 41.9573 195.79 41.7942C195.443 41.631 195.141 41.3965 194.881 41.0906C194.643 40.7644 194.459 40.4789 194.329 40.2342C194.221 39.9895 194.135 39.6428 194.07 39.1942C193.983 38.5825 193.94 37.8382 193.94 36.9613Z" fill="#26252A"/>
<path d="M69.3333 54.5733V49.8257H70.0707V51.8904H70.5582L72.283 49.8257H73.233L71.2956 52.113L73.258 54.5733H72.308L70.7331 52.5704H70.0707V54.5733H69.3333Z" fill="#26252A"/>
<path d="M76.1636 54.6722C75.7303 54.6722 75.3502 54.5702 75.0231 54.3662C74.6981 54.1622 74.444 53.8768 74.2607 53.51C74.0794 53.1433 73.9888 52.7147 73.9888 52.2242C73.9888 51.7297 74.0794 51.298 74.2607 50.9292C74.444 50.5603 74.6981 50.2739 75.0231 50.0699C75.3502 49.8659 75.7303 49.7639 76.1636 49.7639C76.5969 49.7639 76.9761 49.8659 77.3011 50.0699C77.6281 50.2739 77.8823 50.5603 78.0635 50.9292C78.2468 51.298 78.3385 51.7297 78.3385 52.2242C78.3385 52.7147 78.2468 53.1433 78.0635 53.51C77.8823 53.8768 77.6281 54.1622 77.3011 54.3662C76.9761 54.5702 76.5969 54.6722 76.1636 54.6722ZM76.1636 54.0169C76.4928 54.0169 76.7636 53.9335 76.9761 53.7666C77.1886 53.5997 77.3458 53.3802 77.4479 53.1082C77.55 52.8362 77.601 52.5416 77.601 52.2242C77.601 51.9069 77.55 51.6112 77.4479 51.3372C77.3458 51.0631 77.1886 50.8416 76.9761 50.6726C76.7636 50.5037 76.4928 50.4192 76.1636 50.4192C75.8345 50.4192 75.5637 50.5037 75.3512 50.6726C75.1387 50.8416 74.9814 51.0631 74.8794 51.3372C74.7773 51.6112 74.7263 51.9069 74.7263 52.2242C74.7263 52.5416 74.7773 52.8362 74.8794 53.1082C74.9814 53.3802 75.1387 53.5997 75.3512 53.7666C75.5637 53.9335 75.8345 54.0169 76.1636 54.0169Z" fill="#26252A"/>
<path d="M82.7784 49.8257V50.5057H80.5536V54.5733H79.8162V49.8257H82.7784Z" fill="#26252A"/>
<path d="M83.2905 55.9333V53.8933H83.6905C83.7884 53.7923 83.8728 53.6831 83.9436 53.5657C84.0145 53.4482 84.0759 53.3091 84.128 53.1484C84.1821 52.9856 84.228 52.7878 84.2655 52.555C84.303 52.3201 84.3363 52.0367 84.3655 51.705L84.528 49.8257H87.5777V53.8933H88.3152V55.9333H87.5777V54.5733H84.028V55.9333H83.2905ZM84.528 53.8933H86.8403V50.5057H85.2154L85.0904 51.705C85.0383 52.2016 84.9738 52.6353 84.8967 53.0062C84.8196 53.3771 84.6967 53.6728 84.528 53.8933Z" fill="#26252A"/>
<path d="M91.0584 54.6846C90.7542 54.6846 90.4782 54.6279 90.2303 54.5146C89.9824 54.3992 89.7856 54.2333 89.6397 54.0169C89.4939 53.7985 89.421 53.5348 89.421 53.2257C89.421 52.9537 89.4752 52.7332 89.5835 52.5642C89.6918 52.3932 89.8366 52.2593 90.0178 52.1624C90.1991 52.0656 90.399 51.9935 90.6178 51.9461C90.8386 51.8966 91.0605 51.8575 91.2834 51.8286C91.575 51.7915 91.8114 51.7637 91.9927 51.7452C92.176 51.7246 92.3093 51.6906 92.3926 51.6432C92.4781 51.5958 92.5208 51.5133 92.5208 51.3959V51.3712C92.5208 51.0662 92.4364 50.8292 92.2677 50.6603C92.101 50.4913 91.8479 50.4068 91.5083 50.4068C91.1563 50.4068 90.8803 50.4831 90.6803 50.6355C90.4803 50.788 90.3397 50.9508 90.2584 51.1239L89.5585 50.8766C89.6835 50.5881 89.8501 50.3635 90.0584 50.2028C90.2688 50.04 90.498 49.9267 90.7459 49.8628C90.9959 49.7969 91.2417 49.7639 91.4833 49.7639C91.6375 49.7639 91.8146 49.7825 92.0145 49.8196C92.2166 49.8546 92.4114 49.9277 92.5989 50.039C92.7884 50.1503 92.9457 50.3182 93.0707 50.5428C93.1957 50.7674 93.2582 51.0683 93.2582 51.4453V54.5733H92.5208V53.9304H92.4833C92.4333 54.0334 92.3499 54.1437 92.2333 54.2611C92.1166 54.3786 91.9614 54.4785 91.7677 54.5609C91.574 54.6434 91.3375 54.6846 91.0584 54.6846ZM91.1709 54.0293C91.4625 54.0293 91.7083 53.9726 91.9083 53.8593C92.1104 53.746 92.2624 53.5997 92.3645 53.4204C92.4687 53.2411 92.5208 53.0526 92.5208 52.8548V52.1872C92.4895 52.2242 92.4208 52.2582 92.3145 52.2891C92.2104 52.318 92.0895 52.3438 91.9521 52.3664C91.8166 52.387 91.6844 52.4056 91.5552 52.4221C91.4281 52.4365 91.325 52.4488 91.2459 52.4591C91.0542 52.4839 90.875 52.5241 90.7084 52.5797C90.5438 52.6333 90.4105 52.7147 90.3084 52.8239C90.2084 52.931 90.1584 53.0773 90.1584 53.2628C90.1584 53.5162 90.2532 53.7079 90.4428 53.8377C90.6344 53.9654 90.8771 54.0293 91.1709 54.0293Z" fill="#26252A"/>
<path d="M97.783 54.5733V49.8257H99.7453C100.262 49.8257 100.672 49.9411 100.976 50.1719C101.281 50.4027 101.433 50.7077 101.433 51.0868C101.433 51.3753 101.346 51.5989 101.173 51.7575C101 51.9141 100.779 52.0202 100.508 52.0759C100.685 52.1006 100.857 52.1624 101.023 52.2613C101.192 52.3602 101.332 52.4962 101.442 52.6693C101.552 52.8404 101.608 53.0505 101.608 53.2999C101.608 53.543 101.545 53.7604 101.42 53.952C101.295 54.1437 101.116 54.2951 100.883 54.4064C100.649 54.5177 100.37 54.5733 100.045 54.5733H97.783ZM98.4829 53.9057H100.045C100.299 53.9057 100.498 53.8459 100.642 53.7264C100.786 53.6069 100.858 53.4441 100.858 53.238C100.858 52.9928 100.786 52.8002 100.642 52.6601C100.498 52.5179 100.299 52.4468 100.045 52.4468H98.4829V53.9057ZM98.4829 51.8162H99.7453C99.9432 51.8162 100.113 51.7895 100.255 51.7359C100.396 51.6802 100.505 51.6019 100.58 51.501C100.657 51.398 100.695 51.2764 100.695 51.1363C100.695 50.9364 100.611 50.7798 100.442 50.6664C100.273 50.5511 100.041 50.4934 99.7453 50.4934H98.4829V51.8162Z" fill="#26252A"/>
<path d="M103.076 56.3536V49.8257H103.788V50.5799H103.876C103.93 50.4975 104.005 50.3924 104.101 50.2646C104.199 50.1348 104.338 50.0194 104.52 49.9185C104.703 49.8154 104.951 49.7639 105.263 49.7639C105.667 49.7639 106.024 49.8639 106.332 50.0637C106.64 50.2636 106.881 50.5469 107.054 50.9137C107.227 51.2805 107.313 51.7132 107.313 52.2119C107.313 52.7147 107.227 53.1505 107.054 53.5193C106.881 53.8861 106.641 54.1705 106.335 54.3724C106.029 54.5723 105.676 54.6722 105.276 54.6722C104.967 54.6722 104.721 54.6217 104.535 54.5208C104.35 54.4177 104.207 54.3013 104.107 54.1715C104.007 54.0396 103.93 53.9304 103.876 53.8439H103.813V56.3536H103.076ZM103.801 52.1995C103.801 52.5581 103.854 52.8744 103.96 53.1484C104.067 53.4204 104.222 53.6337 104.426 53.7882C104.63 53.9407 104.88 54.0169 105.176 54.0169C105.484 54.0169 105.741 53.9366 105.948 53.7759C106.156 53.6131 106.312 53.3946 106.416 53.1206C106.523 52.8445 106.576 52.5374 106.576 52.1995C106.576 51.8657 106.524 51.5649 106.419 51.297C106.317 51.027 106.162 50.8138 105.954 50.6572C105.748 50.4985 105.488 50.4192 105.176 50.4192C104.876 50.4192 104.624 50.4944 104.42 50.6448C104.215 50.7932 104.061 51.0013 103.957 51.2692C103.853 51.535 103.801 51.8451 103.801 52.1995Z" fill="#26252A"/>
<path d="M110.802 54.6722C110.34 54.6722 109.941 54.5712 109.606 54.3693C109.272 54.1653 109.015 53.8809 108.834 53.5162C108.655 53.1494 108.565 52.7229 108.565 52.2366C108.565 51.7503 108.655 51.3217 108.834 50.9508C109.015 50.5778 109.267 50.2873 109.59 50.0792C109.915 49.869 110.294 49.7639 110.727 49.7639C110.977 49.7639 111.224 49.8051 111.468 49.8876C111.712 49.97 111.934 50.1039 112.134 50.2894C112.334 50.4728 112.493 50.7159 112.612 51.0188C112.73 51.3217 112.79 51.6947 112.79 52.1377V52.4468H109.09V51.8162H112.04C112.04 51.5484 111.986 51.3093 111.877 51.0992C111.771 50.889 111.619 50.7231 111.421 50.6015C111.225 50.48 110.994 50.4192 110.727 50.4192C110.434 50.4192 110.18 50.4913 109.965 50.6355C109.752 50.7777 109.589 50.9632 109.474 51.1919C109.36 51.4206 109.303 51.6658 109.303 51.9275V52.3479C109.303 52.7064 109.365 53.0103 109.49 53.2597C109.617 53.5069 109.793 53.6955 110.018 53.8253C110.243 53.9531 110.504 54.0169 110.802 54.0169C110.996 54.0169 111.171 53.9902 111.327 53.9366C111.486 53.8809 111.622 53.7985 111.737 53.6893C111.851 53.578 111.94 53.44 112.002 53.2751L112.715 53.4729C112.64 53.712 112.514 53.9222 112.337 54.1035C112.16 54.2828 111.941 54.4229 111.68 54.5238C111.42 54.6227 111.127 54.6722 110.802 54.6722Z" fill="#26252A"/>
<path d="M116.888 53.5842L118.563 49.8257H119.263L117.188 54.5733H116.588L114.551 49.8257H115.238L116.888 53.5842ZM115.001 49.8257V54.5733H114.264V49.8257H115.001ZM118.776 54.5733V49.8257H119.513V54.5733H118.776Z" fill="#26252A"/>
<path d="M124.102 54.5733V50.4934H122.827C122.54 50.4934 122.314 50.5593 122.149 50.6912C121.985 50.8231 121.902 51.0044 121.902 51.2352C121.902 51.4618 121.976 51.6401 122.124 51.7699C122.274 51.8997 122.479 51.9646 122.74 51.9646H124.29V52.6446H122.74C122.415 52.6446 122.135 52.5879 121.899 52.4746C121.664 52.3613 121.483 52.1995 121.356 51.9893C121.229 51.7771 121.165 51.5257 121.165 51.2352C121.165 50.9426 121.232 50.6912 121.365 50.481C121.498 50.2708 121.689 50.1091 121.937 49.9957C122.187 49.8824 122.484 49.8257 122.827 49.8257H124.802V54.5733H124.102ZM120.903 54.5733L122.265 52.2119H123.065L121.702 54.5733H120.903Z" fill="#26252A"/>
<path d="M130.072 53.4977L132.385 49.8257H133.234V54.5733H132.497V50.9014L130.197 54.5733H129.335V49.8257H130.072V53.4977Z" fill="#26252A"/>
<path d="M137.562 53.5842L139.237 49.8257H139.937L137.862 54.5733H137.262L135.225 49.8257H135.912L137.562 53.5842ZM135.675 49.8257V54.5733H134.937V49.8257H135.675ZM139.449 54.5733V49.8257H140.187V54.5733H139.449Z" fill="#26252A"/>
<path d="M143.901 54.6722C143.438 54.6722 143.04 54.5712 142.704 54.3693C142.371 54.1653 142.114 53.8809 141.932 53.5162C141.753 53.1494 141.664 52.7229 141.664 52.2366C141.664 51.7503 141.753 51.3217 141.932 50.9508C142.114 50.5778 142.366 50.2873 142.689 50.0792C143.014 49.869 143.393 49.7639 143.826 49.7639C144.076 49.7639 144.323 49.8051 144.567 49.8876C144.81 49.97 145.032 50.1039 145.232 50.2894C145.432 50.4728 145.591 50.7159 145.71 51.0188C145.829 51.3217 145.888 51.6947 145.888 52.1377V52.4468H142.189V51.8162H145.138C145.138 51.5484 145.084 51.3093 144.976 51.0992C144.87 50.889 144.718 50.7231 144.52 50.6015C144.324 50.48 144.093 50.4192 143.826 50.4192C143.532 50.4192 143.278 50.4913 143.064 50.6355C142.851 50.7777 142.688 50.9632 142.573 51.1919C142.458 51.4206 142.401 51.6658 142.401 51.9275V52.3479C142.401 52.7064 142.464 53.0103 142.589 53.2597C142.716 53.5069 142.892 53.6955 143.117 53.8253C143.342 53.9531 143.603 54.0169 143.901 54.0169C144.095 54.0169 144.27 53.9902 144.426 53.9366C144.584 53.8809 144.721 53.7985 144.835 53.6893C144.95 53.578 145.038 53.44 145.101 53.2751L145.813 53.4729C145.738 53.712 145.612 53.9222 145.435 54.1035C145.258 54.2828 145.039 54.4229 144.779 54.5238C144.519 54.6227 144.226 54.6722 143.901 54.6722Z" fill="#26252A"/>
<path d="M149.374 54.6722C148.912 54.6722 148.513 54.5712 148.178 54.3693C147.844 54.1653 147.587 53.8809 147.406 53.5162C147.227 53.1494 147.137 52.7229 147.137 52.2366C147.137 51.7503 147.227 51.3217 147.406 50.9508C147.587 50.5778 147.839 50.2873 148.162 50.0792C148.487 49.869 148.866 49.7639 149.299 49.7639C149.549 49.7639 149.796 49.8051 150.04 49.8876C150.284 49.97 150.506 50.1039 150.706 50.2894C150.906 50.4728 151.065 50.7159 151.184 51.0188C151.302 51.3217 151.362 51.6947 151.362 52.1377V52.4468H147.662V51.8162H150.612C150.612 51.5484 150.558 51.3093 150.449 51.0992C150.343 50.889 150.191 50.7231 149.993 50.6015C149.797 50.48 149.566 50.4192 149.299 50.4192C149.006 50.4192 148.752 50.4913 148.537 50.6355C148.325 50.7777 148.161 50.9632 148.046 51.1919C147.932 51.4206 147.875 51.6658 147.875 51.9275V52.3479C147.875 52.7064 147.937 53.0103 148.062 53.2597C148.189 53.5069 148.365 53.6955 148.59 53.8253C148.815 53.9531 149.077 54.0169 149.374 54.0169C149.568 54.0169 149.743 53.9902 149.899 53.9366C150.058 53.8809 150.194 53.7985 150.309 53.6893C150.423 53.578 150.512 53.44 150.574 53.2751L151.287 53.4729C151.212 53.712 151.086 53.9222 150.909 54.1035C150.732 54.2828 150.513 54.4229 150.252 54.5238C149.992 54.6227 149.699 54.6722 149.374 54.6722Z" fill="#26252A"/>
<path d="M152.389 50.5057V49.8257H156.288V50.5057H154.714V54.5733H153.976V50.5057H152.389Z" fill="#26252A"/>
<path d="M160.243 53.3617H161.03C161.047 53.576 161.145 53.7388 161.324 53.85C161.505 53.9613 161.741 54.0169 162.03 54.0169C162.326 54.0169 162.579 53.9572 162.79 53.8377C163 53.7161 163.105 53.5203 163.105 53.2504C163.105 53.0917 163.066 52.9537 162.986 52.8362C162.907 52.7167 162.796 52.624 162.652 52.5581C162.508 52.4921 162.339 52.4591 162.143 52.4591H161.318V51.8039H162.143C162.436 51.8039 162.653 51.7379 162.793 51.6061C162.934 51.4742 163.005 51.3093 163.005 51.1115C163.005 50.8993 162.929 50.7293 162.777 50.6015C162.625 50.4717 162.409 50.4068 162.13 50.4068C161.849 50.4068 161.615 50.4697 161.427 50.5954C161.24 50.719 161.141 50.8787 161.13 51.0744H160.355C160.364 50.8189 160.443 50.5933 160.593 50.3975C160.743 50.1997 160.947 50.0452 161.205 49.9339C161.464 49.8206 161.759 49.7639 162.093 49.7639C162.43 49.7639 162.723 49.8226 162.971 49.9401C163.221 50.0555 163.413 50.2131 163.549 50.413C163.686 50.6108 163.755 50.8354 163.755 51.0868C163.755 51.3547 163.679 51.571 163.527 51.7359C163.375 51.9007 163.184 52.0182 162.955 52.0882V52.1377C163.136 52.1501 163.294 52.2078 163.427 52.3108C163.562 52.4118 163.668 52.5447 163.743 52.7095C163.818 52.8723 163.855 53.0526 163.855 53.2504C163.855 53.5389 163.777 53.7903 163.621 54.0046C163.465 54.2168 163.25 54.3817 162.977 54.4991C162.704 54.6145 162.393 54.6722 162.043 54.6722C161.703 54.6722 161.399 54.6176 161.13 54.5084C160.862 54.3971 160.648 54.2436 160.49 54.0478C160.334 53.85 160.251 53.6213 160.243 53.3617Z" fill="#26252A"/>
<path d="M168.455 51.8657V52.5457H165.805V51.8657H168.455ZM165.98 49.8257V54.5733H165.243V49.8257H165.98ZM169.018 49.8257V54.5733H168.28V49.8257H169.018Z" fill="#26252A"/>
<path d="M172.129 54.6846C171.825 54.6846 171.549 54.6279 171.301 54.5146C171.053 54.3992 170.856 54.2333 170.71 54.0169C170.564 53.7985 170.491 53.5348 170.491 53.2257C170.491 52.9537 170.546 52.7332 170.654 52.5642C170.762 52.3932 170.907 52.2593 171.088 52.1624C171.27 52.0656 171.469 51.9935 171.688 51.9461C171.909 51.8966 172.131 51.8575 172.354 51.8286C172.645 51.7915 172.882 51.7637 173.063 51.7452C173.246 51.7246 173.38 51.6906 173.463 51.6432C173.549 51.5958 173.591 51.5133 173.591 51.3959V51.3712C173.591 51.0662 173.507 50.8292 173.338 50.6603C173.171 50.4913 172.918 50.4068 172.579 50.4068C172.227 50.4068 171.951 50.4831 171.751 50.6355C171.551 50.788 171.41 50.9508 171.329 51.1239L170.629 50.8766C170.754 50.5881 170.921 50.3635 171.129 50.2028C171.339 50.04 171.568 49.9267 171.816 49.8628C172.066 49.7969 172.312 49.7639 172.554 49.7639C172.708 49.7639 172.885 49.7825 173.085 49.8196C173.287 49.8546 173.482 49.9277 173.669 50.039C173.859 50.1503 174.016 50.3182 174.141 50.5428C174.266 50.7674 174.329 51.0683 174.329 51.4453V54.5733H173.591V53.9304H173.554C173.504 54.0334 173.42 54.1437 173.304 54.2611C173.187 54.3786 173.032 54.4785 172.838 54.5609C172.644 54.6434 172.408 54.6846 172.129 54.6846ZM172.241 54.0293C172.533 54.0293 172.779 53.9726 172.979 53.8593C173.181 53.746 173.333 53.5997 173.435 53.4204C173.539 53.2411 173.591 53.0526 173.591 52.8548V52.1872C173.56 52.2242 173.491 52.2582 173.385 52.2891C173.281 52.318 173.16 52.3438 173.022 52.3664C172.887 52.387 172.755 52.4056 172.626 52.4221C172.499 52.4365 172.395 52.4488 172.316 52.4591C172.125 52.4839 171.945 52.5241 171.779 52.5797C171.614 52.6333 171.481 52.7147 171.379 52.8239C171.279 52.931 171.229 53.0773 171.229 53.2628C171.229 53.5162 171.324 53.7079 171.513 53.8377C171.705 53.9654 171.948 54.0293 172.241 54.0293Z" fill="#26252A"/>
<path d="M179.726 49.8257V54.5733H178.989V49.8257H179.726ZM179.439 52.0882V52.7682C179.272 52.83 179.107 52.8847 178.942 52.932C178.777 52.9774 178.605 53.0134 178.423 53.0402C178.242 53.065 178.043 53.0773 177.826 53.0773C177.283 53.0773 176.846 52.932 176.517 52.6415C176.19 52.351 176.027 51.9152 176.027 51.3341V49.8134H176.764V51.3341C176.764 51.5772 176.811 51.7771 176.905 51.9337C176.998 52.0903 177.125 52.2067 177.286 52.283C177.446 52.3592 177.626 52.3973 177.826 52.3973C178.139 52.3973 178.421 52.3695 178.673 52.3139C178.927 52.2562 179.183 52.181 179.439 52.0882Z" fill="#26252A"/>
<path d="M183.444 54.6722C182.981 54.6722 182.582 54.5712 182.247 54.3693C181.914 54.1653 181.656 53.8809 181.475 53.5162C181.296 53.1494 181.206 52.7229 181.206 52.2366C181.206 51.7503 181.296 51.3217 181.475 50.9508C181.656 50.5778 181.908 50.2873 182.231 50.0792C182.556 49.869 182.935 49.7639 183.369 49.7639C183.619 49.7639 183.866 49.8051 184.109 49.8876C184.353 49.97 184.575 50.1039 184.775 50.2894C184.975 50.4728 185.134 50.7159 185.253 51.0188C185.372 51.3217 185.431 51.6947 185.431 52.1377V52.4468H181.731V51.8162H184.681C184.681 51.5484 184.627 51.3093 184.519 51.0992C184.412 50.889 184.26 50.7231 184.062 50.6015C183.867 50.48 183.635 50.4192 183.369 50.4192C183.075 50.4192 182.821 50.4913 182.606 50.6355C182.394 50.7777 182.23 50.9632 182.116 51.1919C182.001 51.4206 181.944 51.6658 181.944 51.9275V52.3479C181.944 52.7064 182.006 53.0103 182.131 53.2597C182.258 53.5069 182.434 53.6955 182.659 53.8253C182.884 53.9531 183.146 54.0169 183.444 54.0169C183.637 54.0169 183.812 53.9902 183.969 53.9366C184.127 53.8809 184.263 53.7985 184.378 53.6893C184.493 53.578 184.581 53.44 184.644 53.2751L185.356 53.4729C185.281 53.712 185.155 53.9222 184.978 54.1035C184.801 54.2828 184.582 54.4229 184.322 54.5238C184.061 54.6227 183.769 54.6722 183.444 54.6722Z" fill="#26252A"/>
<path d="M190.117 51.8657V52.5457H187.467V51.8657H190.117ZM187.642 49.8257V54.5733H186.905V49.8257H187.642ZM190.68 49.8257V54.5733H189.942V49.8257H190.68Z" fill="#26252A"/>
<path d="M193.116 53.4977L195.428 49.8257H196.278V54.5733H195.541V50.9014L193.241 54.5733H192.378V49.8257H193.116V53.4977Z" fill="#26252A"/>
<path d="M199.993 54.6722C199.531 54.6722 199.132 54.5712 198.796 54.3693C198.463 54.1653 198.206 53.8809 198.024 53.5162C197.845 53.1494 197.756 52.7229 197.756 52.2366C197.756 51.7503 197.845 51.3217 198.024 50.9508C198.206 50.5778 198.458 50.2873 198.781 50.0792C199.106 49.869 199.485 49.7639 199.918 49.7639C200.168 49.7639 200.415 49.8051 200.659 49.8876C200.902 49.97 201.124 50.1039 201.324 50.2894C201.524 50.4728 201.683 50.7159 201.802 51.0188C201.921 51.3217 201.98 51.6947 201.98 52.1377V52.4468H198.281V51.8162H201.23C201.23 51.5484 201.176 51.3093 201.068 51.0992C200.962 50.889 200.81 50.7231 200.612 50.6015C200.416 50.48 200.185 50.4192 199.918 50.4192C199.624 50.4192 199.37 50.4913 199.156 50.6355C198.943 50.7777 198.78 50.9632 198.665 51.1919C198.55 51.4206 198.493 51.6658 198.493 51.9275V52.3479C198.493 52.7064 198.556 53.0103 198.681 53.2597C198.808 53.5069 198.984 53.6955 199.209 53.8253C199.434 53.9531 199.695 54.0169 199.993 54.0169C200.187 54.0169 200.362 53.9902 200.518 53.9366C200.676 53.8809 200.813 53.7985 200.927 53.6893C201.042 53.578 201.13 53.44 201.193 53.2751L201.905 53.4729C201.83 53.712 201.704 53.9222 201.527 54.1035C201.35 54.2828 201.131 54.4229 200.871 54.5238C200.611 54.6227 200.318 54.6722 199.993 54.6722Z" fill="#26252A"/>
</svg>
