<svg width="53" height="53" viewBox="0 0 53 53" fill="none" xmlns="http://www.w3.org/2000/svg">
<circle cx="26.5" cy="26.5" r="26.1875" fill="white" />
<g transform="translate(13, 11.5)">
<path d="M13.5 12C16.05 12 18.09 9.975 18.09 7.5C18.09 5.025 16.05 3 13.5 3C10.95 3 8.91 5.025 8.91 7.5C8.91 9.975 10.95 12 13.5 12ZM13.5 15C9.3 15 5.91 11.64 5.91 7.5C5.91 3.36 9.3 0 13.5 0C17.7 0 21.09 3.36 21.09 7.5C21.09 11.64 17.7 15 13.5 15ZM3 27H24V25.005C24 22.38 20.535 19.665 13.5 19.665C6.465 19.665 3 22.38 3 25.005V27ZM13.5 16.665C23.49 16.665 27 21.66 27 25.005V30H0V25.005C0 21.66 3.51 16.665 13.5 16.665Z" fill="#26252A" />
</g>
</svg>